# xmcd
#
# Track frame offsets:
#	150
#	14156
#	33786
#	52961
#	73614
#	86809
#	102138
#	122833
#	137679
#	152933
#	169486
#	188595
#	210440
#	227671
#	248675
#	266727
#
# Disc length: 3801 seconds
#
# Revision: 0
# Processed by: cddbd v1.5.2PL0 Copyright (c) Steve Scherf et al.
# Submitted via: EasyCDDAExtractor 16.0.6.1
#
DISCID=db0ed710
DTITLE=Συλλογικός Δίσκος - Ποντοπόροι-Ρωμάνα
DYEAR=2004
DGENRE=Παραδοσιακή
TTITLE0=Άνευ ερμηνευτού - Σέρα
TTITLE1=Άνευ ερμηνευτού - Σερανίτσα
TTITLE2=Άνευ ερμηνευτού - Διπάτ
TTITLE3=Άνευ ερμηνευτού - Κότσαρι
TTITLE4=Άνευ ερμηνευτού - Εμπρόπις
TTITLE5=Άνευ ερμηνευτού - Λετσίνα
TTITLE6=Χορωδία - Σαράντα μήλα [χορός Ομάλ]
TTITLE7=Άνευ ερμηνευτού - Κοτ'ς
TTITLE8=Άνευ ερμηνευτού - Τικ στο γόνατο
TTITLE9=Άνευ ερμηνευτού - Τικ τρομαχτόν
TTITLE10=Άνευ ερμηνευτού - Ξανθόν κορίτσ' [Σαριγούζ]
TTITLE11=Άνευ ερμηνευτού - Τας
TTITLE12=Άνευ ερμηνευτού - Μοσκόφ
TTITLE13=Άνευ ερμηνευτού - Φυσερέτικο
TTITLE14=Άνευ ερμηνευτού - Σούσι
TTITLE15=Κωνσταντινίδης Κωνσταντίνος - Ρωμάνα [επιτραπέζιο]
EXTD=
EXTT0=
EXTT1=
EXTT2=
EXTT3=
EXTT4=
EXTT5=
EXTT6=
EXTT7=
EXTT8=
EXTT9=
EXTT10=
EXTT11=
EXTT12=
EXTT13=
EXTT14=
EXTT15=
PLAYORDER=
